<?xml version="1.0" encoding="UTF-8" standalone="no" ?>
<!DOCTYPE svg PUBLIC "-//W3C//DTD SVG 1.1//EN" "http://www.w3.org/Graphics/SVG/1.1/DTD/svg11.dtd">
<svg xmlns="http://www.w3.org/2000/svg" xmlns:xlink="http://www.w3.org/1999/xlink" version="1.1" width="507.455" height="504.4175" xml:space="preserve">
<desc>Created with Fabric.js 1.6.0-rc.1</desc>
<defs></defs>
<g style="stroke: none; stroke-width: 1; stroke-dasharray: none; stroke-linecap: butt; stroke-linejoin: miter; stroke-miterlimit: 10; fill: none; fill-rule: nonzero; opacity: 1;" transform="translate(10 10) scale(0.25 0.25)" >
  <path d="M 1095.536 736.765 l -130.557 -97.056 l -134.716 97.056 l -515.31 373.233 v 772.657 c 0 31.124 27.209 54.011 58.332 54.011 h 1183.46 c 31.124 0 56.227 -22.887 56.227 -54.011 v -761.259 l -517.436 -384.631 z" style="stroke: none; stroke-width: 1; stroke-dasharray: none; stroke-linecap: butt; stroke-linejoin: miter; stroke-miterlimit: 10; fill: #9e5afd; fill-rule: nonzero; opacity: 1;" transform=" matrix(0.999999948364873 0 0 0.999999948364873 0 0) " stroke-linecap="round" />
  <path d="M 982.694 446.712 c -4.083 -5.582 -11.916 -6.802 -17.499 -2.707 L 5.123 1146.636 c -5.578 4.094 -6.786 11.926 -2.708 17.503 l 36.987 50.53 c 4.078 5.578 11.916 6.803 17.504 2.714 l 960.06 -702.638 c 5.579 -4.1 6.798 -11.921 2.71 -17.509 l -36.982 -50.524 z" style="stroke: none; stroke-width: 1; stroke-dasharray: none; stroke-linecap: butt; stroke-linejoin: miter; stroke-miterlimit: 10; fill: #9e5afd; fill-rule: nonzero; opacity: 1;" transform=" matrix(0.999999948364873 0 0 0.999999948364873 0 0) " stroke-linecap="round" />
  <path d="M 966.123 446.712 c 4.083 -5.582 11.915 -6.802 17.498 -2.707 l 960.072 702.631 c 5.583 4.094 6.791 11.926 2.708 17.503 l -36.981 50.53 c -4.082 5.578 -11.92 6.803 -17.504 2.714 L 931.855 514.745 c -5.583 -4.1 -6.802 -11.921 -2.708 -17.509 l 36.976 -50.524 z" style="stroke: none; stroke-width: 1; stroke-dasharray: none; stroke-linecap: butt; stroke-linejoin: miter; stroke-miterlimit: 10; fill: #9e5afd; fill-rule: nonzero; opacity: 1;" transform=" matrix(0.999999948364873 0 0 0.999999948364873 0 0) " stroke-linecap="round" />
  <path d="M 1281.566 705.458 V 594.46 h 309.315 v 348.944 z" style="stroke: none; stroke-width: 1; stroke-dasharray: none; stroke-linecap: butt; stroke-linejoin: miter; stroke-miterlimit: 10; fill: #9e5afd; fill-rule: nonzero; opacity: 1;" transform=" matrix(0.999999948364873 0 0 0.999999948364873 0 0) " stroke-linecap="round" />
  <path d="M 1516.686 459.663 c 28.761 -31.549 26.489 -80.43 -5.054 -109.18 c -31.556 -28.761 -80.431 -26.49 -109.191 5.06 c -28.756 31.55 -26.49 80.426 5.06 109.181 c 31.549 28.759 80.428 26.488 109.185 -5.061 z" style="stroke: none; stroke-width: 1; stroke-dasharray: none; stroke-linecap: butt; stroke-linejoin: miter; stroke-miterlimit: 10; fill: #fcfcf5; fill-rule: nonzero; opacity: 1;" transform=" matrix(0.999999948364873 0 0 0.999999948364873 0 0) " stroke-linecap="round" />
  <path d="M 1491.981 525.653 c 18.793 -20.616 17.31 -52.576 -3.313 -71.368 c -20.622 -18.798 -52.575 -17.319 -71.368 3.302 c -18.805 20.621 -17.32 52.575 3.301 71.373 c 20.628 18.798 52.582 17.32 71.38 -3.307 z m -165.306 615.098 s -168.051 -99.471 -347.381 45.196 c 0 0 -172.549 -144.667 -355.66 -40.687 c 0 0 -137.894 88.166 -74.604 305.188 c 0 0 98.705 271.266 430.265 386.559 c 0 0 277.502 -94.85 406.149 -336.824 c 0 -0.001 124.343 -235.117 -58.769 -359.432 z m 253.159 -1010.264 C 1579.834 58.423 1521.412 0 1449.348 0 c -72.07 0 -130.487 58.423 -130.487 130.487 s 58.417 130.487 130.487 130.487 c 72.063 0 130.486 -58.423 130.486 -130.487 z" style="stroke: none; stroke-width: 1; stroke-dasharray: none; stroke-linecap: butt; stroke-linejoin: miter; stroke-miterlimit: 10; fill: #fcfcf5; fill-rule: nonzero; opacity: 1;" transform=" matrix(0.999999948364873 0 0 0.999999948364873 0 0) " stroke-linecap="round" />
</g>
</svg>